<svg id="Calque_1" data-name="Calque 1" xmlns="http://www.w3.org/2000/svg" viewBox="0 0 1354.31 229.81"><defs><style>.cls-1{fill:#e80050;}.cls-2{fill:#170038;}</style></defs><g id="Blanc"><path class="cls-1" d="M1031,101.62,977.78,238.73a1.24,1.24,0,0,1-1.17.8H954.46a1.25,1.25,0,0,1-1.17-.8l-52-137.14a1.25,1.25,0,0,1,1.17-1.69h23.26a1.26,1.26,0,0,1,1.18.82L966.1,209.33a1.25,1.25,0,0,0,2.36,0l38.64-108.4a1.28,1.28,0,0,1,1.17-.83l21.57-.18A1.26,1.26,0,0,1,1031,101.62Z" transform="translate(-72.84 -60.1)"/><path class="cls-1" d="M1102.34,222.36a66.43,66.43,0,0,1-13.29,1.26q-15.91,0-24.07-9.1-6.82-7.62-8-21.16a1.25,1.25,0,0,1,1.25-1.35h71.18a1.27,1.27,0,0,0,1.26-1.26q0-17.22-4.52-30.25-4.71-13.5-15.17-21t-27.42-7.54q-23,0-35.91,14.14t-12.88,41.55q0,17.8,6.18,30.15a42.14,42.14,0,0,0,17.59,18.63q11.42,6.29,26.9,6.28a98.9,98.9,0,0,0,20.72-2,91.72,91.72,0,0,0,15.78-4.81,1.24,1.24,0,0,0,.77-1.16V217.24a1.25,1.25,0,0,0-1.78-1.14c-2.12,1-4.53,2-7.23,3A71.87,71.87,0,0,1,1102.34,222.36Zm-42.5-57.25q3-8.27,8.9-11.72a27.5,27.5,0,0,1,14.23-3.46q13,0,19,7.43,4.76,5.8,6.17,16.92a1.26,1.26,0,0,1-1.25,1.4h-48a1.26,1.26,0,0,1-1.25-1.41A46.17,46.17,0,0,1,1059.84,165.11Z" transform="translate(-72.84 -60.1)"/><path class="cls-1" d="M1156,238.28V144.79a1.26,1.26,0,0,1,.64-1.1,89.32,89.32,0,0,1,9.41-4.23,111.74,111.74,0,0,1,17.37-5.13,95.13,95.13,0,0,1,20.31-2.2,36.69,36.69,0,0,1,8.58.84,35.59,35.59,0,0,1,4.9,1.56,1.25,1.25,0,0,1,.76,1.15V151a1.25,1.25,0,0,1-1.4,1.24q-3.4-.41-7-.66a99.7,99.7,0,0,0-14.46,0c-2.67.2-5.31.46-7.9.78-2.93.37-5.64.73-8.15,1.1a1.25,1.25,0,0,0-1.06,1.24v83.5a1.25,1.25,0,0,1-1.25,1.25h-19.48A1.25,1.25,0,0,1,1156,238.28Z" transform="translate(-72.84 -60.1)"/><path class="cls-1" d="M1269.3,242.67a66.26,66.26,0,0,1-19.16-2.4,115.55,115.55,0,0,1-14.66-5.63,1.27,1.27,0,0,1-.73-1.14V215.79a1.26,1.26,0,0,1,1.9-1.07q4.47,2.67,8.78,4.82a53.86,53.86,0,0,0,11,4.08,52.11,52.11,0,0,0,12.88,1.47q9,0,14.13-3.77t5.13-9.42a9.3,9.3,0,0,0-3.25-7.54,28.05,28.05,0,0,0-8.27-4.6q-5-1.89-10.42-3.76l-.09,0c-3.75-1-7.5-2.12-11.26-3.45a39.54,39.54,0,0,1-10.36-5.44,25.35,25.35,0,0,1-7.54-8.9,28.85,28.85,0,0,1-2.82-13.4,29.5,29.5,0,0,1,3.55-15,30,30,0,0,1,9.32-10.05,40.66,40.66,0,0,1,12.77-5.66,56,56,0,0,1,13.71-1.78q11.1.21,18.11,2.73a102.9,102.9,0,0,1,13,5.72,1.24,1.24,0,0,1,.67,1.1l.18,16a1.25,1.25,0,0,1-1.83,1.12q-6.51-3.37-12.38-5.94a38.42,38.42,0,0,0-15.49-2.93q-8.18,0-13.61,3t-5.44,8.9a10.57,10.57,0,0,0,3,8,20.94,20.94,0,0,0,8,4.6q4.9,1.68,10.57,3.35,5.23,1.68,10.89,3.46a38.4,38.4,0,0,1,10.46,5.13,25.77,25.77,0,0,1,7.85,8.79q3,5.44,3,14.23-.21,11.73-6.18,19.06a34,34,0,0,1-15.59,10.67A60.29,60.29,0,0,1,1269.3,242.67Z" transform="translate(-72.84 -60.1)"/><path class="cls-1" d="M1398.78,222.36a66.43,66.43,0,0,1-13.29,1.26q-15.91,0-24.08-9.1-6.83-7.62-7.94-21.16a1.25,1.25,0,0,1,1.25-1.35h71.18a1.27,1.27,0,0,0,1.26-1.26q0-17.22-4.51-30.25-4.71-13.5-15.18-21t-27.42-7.54q-23,0-35.91,14.14t-12.88,41.55q0,17.8,6.18,30.15A42.17,42.17,0,0,0,1355,236.39q11.42,6.29,26.91,6.28a98.9,98.9,0,0,0,20.72-2,91.72,91.72,0,0,0,15.78-4.81,1.24,1.24,0,0,0,.77-1.16V217.24a1.25,1.25,0,0,0-1.78-1.14c-2.12,1-4.53,2-7.23,3A72.17,72.17,0,0,1,1398.78,222.36Zm-42.5-57.25q3-8.27,8.9-11.72a27.5,27.5,0,0,1,14.23-3.46q13,0,19.06,7.43,4.74,5.8,6.16,16.92a1.25,1.25,0,0,1-1.25,1.4h-48a1.25,1.25,0,0,1-1.24-1.42A45.28,45.28,0,0,1,1356.28,165.11Z" transform="translate(-72.84 -60.1)"/><path class="cls-1" d="M891,174.41a45.19,45.19,0,0,0-11.25-29.86,11.39,11.39,0,0,1-2.79-8.93,45.36,45.36,0,0,0-27.49-46.84,12.15,12.15,0,0,1-6.05-5.39A45.33,45.33,0,0,0,803.81,60.1h-.19a20.23,20.23,0,0,0-15.78,7.69,20.58,20.58,0,0,0-4.52,12.9V269.32a20.58,20.58,0,0,0,4.51,12.89,20.26,20.26,0,0,0,15.81,7.69h.17a45.12,45.12,0,0,0,40.24-24.52,11.57,11.57,0,0,1,5.75-5.3,45.25,45.25,0,0,0,27.41-41.61,46.47,46.47,0,0,0-.29-5.14,11.66,11.66,0,0,1,2.84-9.11A45.2,45.2,0,0,0,891,174.41ZM878.66,198.5c-.71,1-1.45,1.89-2.25,2.79l-.26.32a16.19,16.19,0,0,0-3.66,12.21c0,.16,0,.32,0,.48,0,.33.07.65.09,1a1.8,1.8,0,0,1,0,.22c0,.29,0,.59.05.87s0,.62,0,.93,0,.78,0,1.17,0,.95,0,1.41c0,1.15-.13,2.29-.26,3.41,0,.31-.07.62-.13.94,0,.15,0,.31-.06.46,0,.34-.11.67-.17,1s-.1.55-.15.82c-.16.79-.34,1.57-.54,2.35-.07.23-.13.47-.2.7-.23.85-.5,1.68-.8,2.51-.12.35-.24.7-.38,1a3.86,3.86,0,0,1-.15.39c-.16.41-.34.83-.51,1.24s-.4.89-.62,1.34l0,.08-.59,1.18c-.26.49-.53,1-.8,1.46s-.43.73-.65,1.08c-.34.55-.69,1.09-1.05,1.61l-.61.87,0,.07c-.28.38-.56.76-.85,1.13l-.08.11c-.28.35-.56.68-.85,1s-.63.75-1,1.11l-.76.83-.32.32-1,.95c-.35.34-.7.67-1.07,1l-.92.8-.32.28-1,.79-1.11.83a42.42,42.42,0,0,1-6.16,3.67l-.68.31-.9.41-.23.1a15.91,15.91,0,0,0-7.56,6.93c-.06.1-.11.21-.17.32-.16.3-.32.61-.49.91-.49.92-1,1.8-1.59,2.67a39.93,39.93,0,0,1-5.18,6.41c-.28.29-.57.58-.86.85l-.12.11c-.33.31-.66.62-1,.93l-1,.89,0,0c-.35.28-.7.57-1,.83l-1,.72c-.38.27-.76.54-1.15.8-.22.16-.45.31-.68.45-.87.57-1.76,1.1-2.68,1.6l-.62.32c-.31.16-.62.33-.94.48s-.87.42-1.31.6-.64.3-1,.43l-.6.24c-.83.33-1.66.62-2.52.9q-.52.18-1.08.33c-.48.14-1,.28-1.45.39s-.88.22-1.33.31-.81.17-1.23.24-.88.16-1.32.23l-.64.09-.55.07-.73.08h-.08q-.57.06-1.14.09c-.49,0-1,.07-1.44.08h0l-1.47,0h-.24a16.06,16.06,0,0,1-15.8-16.13V80.69a16.06,16.06,0,0,1,15.8-16.14h.24c.48,0,1,0,1.43,0s.88,0,1.32.06h.15l1.26.11.32,0c.36,0,.73.08,1.09.13a.57.57,0,0,1,.18,0c.33,0,.65.09,1,.15.64.1,1.27.21,1.91.36l.9.2.4.1,1.14.3.1,0,1.17.35.18.06c.33.11.67.21,1,.34a38,38,0,0,1,3.92,1.61l1.14.55q.71.36,1.38.75c.35.2.69.39,1,.6l1,.62.72.48.52.35c.73.52,1.45,1,2.14,1.59l1,.82.06,0c.59.5,1.16,1,1.72,1.55l.32.31.85.85c.6.63,1.18,1.26,1.74,1.92l.13.15.77.94c.28.35.54.71.81,1.06s.53.72.78,1.09l.74,1.11c.49.75,1,1.52,1.38,2.3.08.12.14.24.21.36a16.78,16.78,0,0,0,7.79,6.89c.15,0,.27.13.41.18a41.07,41.07,0,0,1,3.83,1.87c.44.24.87.49,1.29.74a.2.2,0,0,0,.08,0l1.12.72c.43.27.85.57,1.27.86l1.19.87c.39.31.78.61,1.15.92s.76.63,1.13,1,.73.66,1.08,1l.06,0,1,1q.88.9,1.71,1.86l.4.47c.5.59,1,1.19,1.45,1.82.27.36.54.73.8,1.11s.6.86.87,1.31l.45.7c.49.8,1,1.61,1.38,2.45.19.37.38.74.56,1.11s.45,1,.67,1.46c.13.31.26.61.38.92.2.47.38,1,.56,1.45.08.21.15.41.21.63.25.69.48,1.4.67,2.12l.21.75c.1.39.2.78.29,1.17s.18.79.26,1.2c0,.25.1.51.14.76.08.41.14.82.21,1.24s.1.72.14,1.09c0,.21,0,.42.07.64.09.78.15,1.58.19,2.39,0,.18,0,.35,0,.52,0,.46,0,.93,0,1.4s0,.76,0,1.16,0,1-.06,1.43c0,.26,0,.52,0,.77s0,.54-.08.81,0,.26,0,.4a15.93,15.93,0,0,0,3.7,12.16c.06.07.11.14.18.21l.57.66.58.71.56.7.54.72c.18.24.35.49.52.73s.26.39.4.58.34.5.5.76a1.63,1.63,0,0,0,.11.17c.31.5.63,1,.93,1.53l.44.79.42.8c.15.26.28.53.41.81l.42.87c.37.8.72,1.63,1,2.46l.32.85.3.87c.19.58.38,1.16.54,1.75.25.89.47,1.79.67,2.7l.12.58.12.66c0,.28.1.58.14.87.15.9.26,1.8.34,2.72,0,.22,0,.45,0,.68.08,1,.11,2,.11,2.95s0,2-.11,2.92c0,.25,0,.49,0,.73-.05.56-.11,1.11-.19,1.66,0,.29-.07.57-.11.86-.13.82-.28,1.64-.46,2.45a5.93,5.93,0,0,1-.16.73c-.07.31-.14.6-.22.9-.25,1-.52,1.91-.84,2.84-.11.33-.22.64-.33.95-.18.48-.37,1-.56,1.42-.11.28-.23.56-.35.83s-.16.38-.24.55-.25.54-.38.8l-.24.5c-.1.21-.2.41-.31.6-.27.54-.56,1.06-.85,1.58h0c-.31.52-.62,1-.94,1.54s-.65,1-1,1.49Z" transform="translate(-72.84 -60.1)"/><path class="cls-1" d="M840.53,168.84a5.05,5.05,0,0,0-1.95-1.49,6,6,0,0,0-2.32-.46H834.4a7.62,7.62,0,1,0,0,15.23h1.86a6.75,6.75,0,0,0,2.32-.41,5,5,0,0,0,1.95-1.35,7.1,7.1,0,0,0,1.35-2.28,8.7,8.7,0,0,0,.51-3.11,11.24,11.24,0,0,0-.51-3.62A8,8,0,0,0,840.53,168.84Z" transform="translate(-72.84 -60.1)"/><path class="cls-1" d="M883,174.41a37.15,37.15,0,0,0-9.26-24.56A19.63,19.63,0,0,1,869,134.72a36.3,36.3,0,0,0,.23-4.17,37.19,37.19,0,0,0-22.85-34.37,20.55,20.55,0,0,1-10-8.89,37.31,37.31,0,0,0-32.57-19.18h-.15a12.5,12.5,0,0,0-12.32,12.58V269.32a12.49,12.49,0,0,0,12.31,12.57h.16a37.12,37.12,0,0,0,33.11-20.19,19.67,19.67,0,0,1,9.72-9,37.23,37.23,0,0,0,22.55-34.24,37.84,37.84,0,0,0-.24-4.25,19.87,19.87,0,0,1,4.78-15.28A37.21,37.21,0,0,0,883,174.41ZM792.23,80.69A11.61,11.61,0,0,1,803.67,69h.14A36.4,36.4,0,0,1,835.6,87.72l0,0a1.37,1.37,0,0,1-1.25,2.06c-.8,0-1.62-.07-2.44-.07a40.81,40.81,0,0,0-37.1,23.79,1.36,1.36,0,0,1-2.6-.58Zm43.91,180.58v0A36.25,36.25,0,0,1,803.81,281h-.16a11.6,11.6,0,0,1-11.42-11.68V236.25a1.4,1.4,0,0,1,2.67-.59,40.83,40.83,0,0,0,37,23.63c1,0,1.91,0,2.85-.1A1.42,1.42,0,0,1,836.14,261.27Zm20-71.06q-6.51,5.85-17.56,5.85H834.4a7.62,7.62,0,0,0-7.62,7.62v3.62a7.62,7.62,0,0,1-7.62,7.62h-3.34a7.62,7.62,0,0,1-7.62-7.62V160.57a7.62,7.62,0,0,1,7.62-7.62h22.76q11.05,0,17.56,4.93t6.5,15.7Q862.64,184.35,856.14,190.21Z" transform="translate(-72.84 -60.1)"/><path class="cls-2" d="M683.2,204.22a11.62,11.62,0,0,1,2.84,9.11,49,49,0,0,0-.28,5.14,45.26,45.26,0,0,0,27.4,41.61,11.55,11.55,0,0,1,5.76,5.3,45.12,45.12,0,0,0,40.24,24.52h.17a20.29,20.29,0,0,0,15.81-7.69,20.63,20.63,0,0,0,4.5-12.89V80.69a20.63,20.63,0,0,0-4.51-12.9,20.26,20.26,0,0,0-15.79-7.69h-.18a45.31,45.31,0,0,0-39.58,23.29,12.22,12.22,0,0,1-6.06,5.39,45.19,45.19,0,0,0-27.76,41.77,47.84,47.84,0,0,0,.27,5.07,11.39,11.39,0,0,1-2.78,8.93,45.23,45.23,0,0,0,0,59.67Zm.59-6.45c-.35-.49-.68-1-1-1.49s-.63-1-.93-1.54h0c-.3-.52-.59-1-.86-1.58l-.31-.6-.24-.5c-.12-.26-.25-.53-.37-.8s-.16-.36-.24-.55-.24-.55-.36-.83c-.19-.47-.37-.94-.55-1.42-.12-.31-.22-.62-.33-.95-.32-.93-.6-1.87-.85-2.84-.08-.3-.15-.59-.22-.9s-.12-.48-.16-.73c-.18-.81-.33-1.63-.45-2.45,0-.29-.08-.57-.12-.86-.08-.55-.13-1.1-.19-1.66,0-.24,0-.48-.05-.73-.07-1-.11-1.94-.11-2.92s0-2,.11-2.95c0-.23,0-.46.05-.68.08-.92.19-1.82.34-2.72,0-.29.09-.59.14-.87s.08-.45.13-.66.07-.38.11-.58c.2-.91.42-1.81.67-2.7.16-.59.35-1.17.55-1.75.09-.29.19-.58.29-.87l.32-.85c.31-.83.66-1.66,1-2.46.15-.29.28-.59.42-.87s.27-.55.41-.81l.43-.8c.14-.26.28-.53.44-.79.3-.51.61-1,.92-1.53a1.77,1.77,0,0,0,.12-.17c.16-.26.33-.51.5-.76l.4-.58.51-.73.55-.72c.17-.23.36-.47.55-.7s.39-.47.59-.71.37-.44.57-.66.11-.14.18-.21a16,16,0,0,0,3.69-12.16,2.8,2.8,0,0,1,0-.4,7.4,7.4,0,0,1-.08-.81l-.06-.77c0-.47,0-.95-.06-1.43s0-.78,0-1.16,0-.94,0-1.4c0-.17,0-.34,0-.52,0-.81.09-1.61.18-2.39,0-.22,0-.43.07-.64,0-.37.09-.74.15-1.09s.12-.83.2-1.24c0-.25.09-.51.14-.76.08-.41.16-.81.26-1.2s.19-.78.3-1.17.13-.5.2-.75c.2-.72.42-1.43.67-2.12.06-.22.13-.42.21-.63.18-.49.37-1,.56-1.45.12-.31.25-.61.39-.92.21-.49.43-1,.67-1.46s.36-.74.56-1.11c.42-.84.89-1.65,1.38-2.45.14-.24.29-.47.44-.7.28-.45.57-.87.88-1.31s.52-.75.8-1.11c.46-.63.94-1.23,1.44-1.82l.4-.47q.83-1,1.71-1.86c.33-.33.66-.66,1-1l0,0c.36-.34.72-.68,1.09-1s.74-.64,1.12-1,.77-.61,1.16-.92l1.18-.87c.42-.29.85-.59,1.28-.86l1.12-.72.08,0c.42-.25.84-.5,1.28-.74A41.07,41.07,0,0,1,715.06,93c.14,0,.27-.13.41-.18a16.73,16.73,0,0,0,7.79-6.89c.08-.12.14-.24.21-.36.43-.78.89-1.55,1.38-2.3q.36-.56.75-1.11c.25-.37.51-.73.77-1.09l.81-1.06.78-.94a1.58,1.58,0,0,0,.12-.15c.56-.66,1.14-1.29,1.75-1.92l.84-.85.33-.31c.56-.53,1.13-1,1.71-1.55l.07,0,1-.82c.7-.55,1.41-1.07,2.14-1.59l.53-.35c.24-.17.48-.32.72-.48l1-.62c.34-.21.68-.4,1-.6s.92-.51,1.39-.75.76-.37,1.14-.55a36.23,36.23,0,0,1,3.92-1.61c.33-.13.67-.23,1-.34l.17-.06L748,66.1l.1,0c.37-.1.75-.21,1.14-.3l.4-.1.9-.2c.63-.15,1.26-.26,1.9-.36.32-.06.64-.12,1-.15a.62.62,0,0,1,.18,0c.37-.05.73-.1,1.1-.13l.31,0,1.26-.11h.16c.43,0,.88,0,1.31-.06s1,0,1.44,0h.23a16.06,16.06,0,0,1,15.8,16.14V269.32a16.06,16.06,0,0,1-15.8,16.13h-.23l-1.47,0h0c-.48,0-.95,0-1.43-.08s-.77,0-1.15-.09H755l-.72-.08-.55-.07-.65-.09c-.44-.07-.88-.14-1.31-.23s-.83-.15-1.23-.24-.89-.19-1.34-.31-1-.25-1.45-.39-.72-.21-1.08-.33c-.85-.28-1.69-.57-2.52-.9l-.6-.24c-.33-.13-.65-.28-1-.43s-.87-.39-1.31-.6-.63-.32-.94-.48l-.61-.32c-.92-.5-1.81-1-2.69-1.6-.23-.14-.46-.29-.68-.45l-1.15-.8-1-.72c-.35-.26-.7-.55-1-.83l0,0c-.36-.3-.71-.59-1-.89l-1-.93a1.14,1.14,0,0,0-.11-.11c-.3-.27-.58-.56-.87-.85a39.34,39.34,0,0,1-5.17-6.41c-.57-.87-1.11-1.75-1.6-2.67-.17-.3-.33-.61-.49-.91a2,2,0,0,0-.17-.32,15.86,15.86,0,0,0-7.56-6.93l-.22-.1-.91-.41-.68-.31a41.79,41.79,0,0,1-6.15-3.67c-.38-.27-.75-.55-1.11-.83l-1-.79c-.11-.09-.22-.18-.32-.28-.31-.26-.63-.53-.93-.8s-.72-.65-1.07-1l-1-.95-.31-.32-.77-.83c-.32-.36-.64-.73-1-1.11s-.57-.67-.85-1l-.08-.11c-.28-.37-.57-.75-.84-1.13l-.06-.07-.61-.87c-.36-.52-.7-1.06-1-1.61-.23-.35-.44-.72-.65-1.08s-.55-1-.8-1.46-.41-.79-.59-1.18l0-.08c-.21-.45-.42-.9-.61-1.34s-.36-.83-.52-1.24c-.05-.14-.11-.26-.15-.39-.13-.34-.26-.69-.37-1-.31-.83-.57-1.66-.81-2.51-.07-.23-.13-.47-.19-.7-.21-.78-.39-1.56-.55-2.35l-.15-.82c-.06-.34-.11-.67-.17-1l-.06-.46c0-.32-.09-.63-.12-.94-.14-1.12-.23-2.26-.26-3.41q0-.69,0-1.41c0-.39,0-.78,0-1.17s0-.62,0-.93,0-.58.05-.87a1.8,1.8,0,0,1,0-.22c0-.33,0-.65.09-1a3.88,3.88,0,0,1,0-.48,16.18,16.18,0,0,0-3.65-12.21l-.27-.32c-.79-.9-1.54-1.82-2.24-2.79Z" transform="translate(-72.84 -60.1)"/><path class="cls-2" d="M727.35,87.74a1.36,1.36,0,0,0,1.24,2.06c.81,0,1.62-.07,2.44-.07a40.81,40.81,0,0,1,37.1,23.79,1.37,1.37,0,0,0,2.61-.58V80.69A11.62,11.62,0,0,0,759.29,69h-.13a36.41,36.41,0,0,0-31.8,18.72Z" transform="translate(-72.84 -60.1)"/><path class="cls-2" d="M728.18,259.19a1.42,1.42,0,0,0-1.36,2.08l0,0A36.25,36.25,0,0,0,759.16,281h.15a11.6,11.6,0,0,0,11.43-11.68V236.25a1.41,1.41,0,0,0-2.68-.59,40.82,40.82,0,0,1-37,23.63C730.07,259.29,729.12,259.26,728.18,259.19Z" transform="translate(-72.84 -60.1)"/><path class="cls-2" d="M737.22,196.06H733q-11.06,0-17.56-5.85T709,173.58q0-10.79,6.51-15.7T733,153H755.8a7.62,7.62,0,0,1,7.62,7.62V207.3a7.62,7.62,0,0,1-7.62,7.62h-3.35a7.62,7.62,0,0,1-7.61-7.62v-3.62A7.62,7.62,0,0,0,737.22,196.06Zm7.62-21.55a7.62,7.62,0,0,0-7.62-7.62h-1.86a5.93,5.93,0,0,0-2.32.46,4.91,4.91,0,0,0-1.95,1.49,8,8,0,0,0-1.35,2.51,11.24,11.24,0,0,0-.51,3.62,8.7,8.7,0,0,0,.51,3.11,7.1,7.1,0,0,0,1.35,2.28,4.84,4.84,0,0,0,1.95,1.35,6.71,6.71,0,0,0,2.32.41h1.86a7.62,7.62,0,0,0,7.62-7.61Z" transform="translate(-72.84 -60.1)"/><path class="cls-2" d="M114.71,199.23v38.1a2.19,2.19,0,0,1-2.2,2.2H75a2.2,2.2,0,0,1-2.2-2.2V102.09a2.21,2.21,0,0,1,2.2-2.2H141.3q24.91,0,39.57,11.1t14.65,35.38q0,24.28-14.65,37.47T141.3,197H116.91A2.21,2.21,0,0,0,114.71,199.23Zm0-35.8a2.2,2.2,0,0,0,2.2,2.2h19.16a14.72,14.72,0,0,0,5.23-.94,11.09,11.09,0,0,0,4.4-3,16.13,16.13,0,0,0,3-5.13,19.63,19.63,0,0,0,1.15-7,25.19,25.19,0,0,0-1.15-8.16,18.45,18.45,0,0,0-3-5.66,11.31,11.31,0,0,0-4.4-3.35,13.59,13.59,0,0,0-5.23-1H116.91a2.2,2.2,0,0,0-2.2,2.2Z" transform="translate(-72.84 -60.1)"/><path class="cls-2" d="M247.65,242.67a67.59,67.59,0,0,1-19.58-2.51q-7.35-2.24-13.29-4.3a2.19,2.19,0,0,1-1.46-2.07V207.42a2.19,2.19,0,0,1,3.4-1.83c1.63,1.08,3.49,2.21,5.6,3.38a67.31,67.31,0,0,0,12.77,5.34A50.23,50.23,0,0,0,250,216.5q6.07,0,7.64-1.78a5.7,5.7,0,0,0,1.57-3.87c0-1.67-1-3.1-3.14-4.29a33.19,33.19,0,0,0-8.16-3q-5-1.25-10.68-2.09a35.22,35.22,0,0,1-9.11-3,26.26,26.26,0,0,1-8-6.18,29.3,29.3,0,0,1-5.66-9.84,40.55,40.55,0,0,1-2.09-13.61q0-11.09,4.29-18.42a33.72,33.72,0,0,1,11.31-11.73,49.3,49.3,0,0,1,15.07-6.28,60.25,60.25,0,0,1,15.39-1.67q14.64.63,22.61,3a47.36,47.36,0,0,1,12.87,5.94,2.16,2.16,0,0,1,.95,1.8l.18,23.35a2.2,2.2,0,0,1-3.25,1.95q-5.22-2.87-10.86-5.72a36.15,36.15,0,0,0-16.64-3.77q-7.76,0-9.95,2.09a6.71,6.71,0,0,0-2.19,5,6.25,6.25,0,0,0,2,4.91,14.34,14.34,0,0,0,5.24,2.83q3.24,1,7.22,2.09,5.24,1.26,10.78,2.83A36,36,0,0,1,287.74,182a24.44,24.44,0,0,1,8,9.32q3,6,3,16-.42,13.41-7.43,21.15a38.36,38.36,0,0,1-18.53,11A92.51,92.51,0,0,1,247.65,242.67Z" transform="translate(-72.84 -60.1)"/><path class="cls-2" d="M427.63,133a2.2,2.2,0,0,1,2.05,3l-39,101.48q-6.09,15.7-13,25.23T363,276.48a33.09,33.09,0,0,1-16.33,4.3,64.82,64.82,0,0,1-12.14-1.16,48.23,48.23,0,0,1-9.34-2.67,2.16,2.16,0,0,1-1.33-2V249a2.19,2.19,0,0,1,2.8-2.11,44,44,0,0,0,4.73,1.11,37.92,37.92,0,0,0,6.28.52,18.18,18.18,0,0,0,8.06-1.78c2.44-1.19,4.47-3.55,6.07-7.11.16-.35.31-.71.45-1.1a2.21,2.21,0,0,0,0-1.62L311.47,136a2.2,2.2,0,0,1,2-3h38.63a2.2,2.2,0,0,1,2.11,1.59l15.5,53.59a2.19,2.19,0,0,0,4.22,0l15.17-53.57a2.18,2.18,0,0,1,2.11-1.6Z" transform="translate(-72.84 -60.1)"/><path class="cls-2" d="M493.43,242.67a66.85,66.85,0,0,1-23.14-3.87,56.64,56.64,0,0,1-18.52-11,49.27,49.27,0,0,1-12.35-17.06,54.42,54.42,0,0,1-4.4-22.3A70.76,70.76,0,0,1,439,164a49.45,49.45,0,0,1,29.72-30.25A67.49,67.49,0,0,1,493,129.62a96.69,96.69,0,0,1,18.63,1.89,66.51,66.51,0,0,1,15.08,4.63,2.19,2.19,0,0,1,1.25,2v27.21a2.2,2.2,0,0,1-3.1,2q-5.85-2.66-11.24-4.64a40.61,40.61,0,0,0-14.13-2.51,32.53,32.53,0,0,0-18.74,5.34q-7.85,5.34-7.85,17.69,0,13.6,6.49,20.93t22.19,7.33a36,36,0,0,0,15-3.25q4.88-2.17,8.55-4.23a2.2,2.2,0,0,1,3.28,1.92V232.4a2.19,2.19,0,0,1-1.09,1.91,63.8,63.8,0,0,1-14.3,6.06A72.26,72.26,0,0,1,493.43,242.67Z" transform="translate(-72.84 -60.1)"/><path class="cls-2" d="M653.37,166.89v70.44a2.19,2.19,0,0,1-2.2,2.2h-33.7a2.2,2.2,0,0,1-2.2-2.2V176.1q0-8.59-4.5-12t-12.88-3.45a27.2,27.2,0,0,0-7.84,1.15,18.29,18.29,0,0,0-3.34,1.26,2.19,2.19,0,0,0-1.17,1.93l-.61,72.4a2.2,2.2,0,0,1-2.2,2.18h-33.3a2.19,2.19,0,0,1-2.2-2.2V95.18a2.2,2.2,0,0,1,2.2-2.2h33.92a2.2,2.2,0,0,1,2.19,2.2v38a2.2,2.2,0,0,0,3.11,2h0a64.11,64.11,0,0,1,26.17-5.55,55.71,55.71,0,0,1,19.57,3.24,27.44,27.44,0,0,1,13.82,11.32Q653.37,152.22,653.37,166.89Z" transform="translate(-72.84 -60.1)"/></g></svg>