<svg id="Calque_1" data-name="Calque 1" xmlns="http://www.w3.org/2000/svg" viewBox="0 0 773.14 811.35"><defs><style>.cls-1{fill:#fff;}</style></defs><g id="nuance"><path class="cls-1" d="M886.57,497.92a159.7,159.7,0,0,0-39.74-105.43A40.24,40.24,0,0,1,837,361a162.09,162.09,0,0,0,1-17.89,159.52,159.52,0,0,0-98-147.45,43.19,43.19,0,0,1-21.38-19.06A160.06,160.06,0,0,0,578.82,94.33h-.66a71.57,71.57,0,0,0-55.72,27.16,72.74,72.74,0,0,0-16,45.54V833a72.81,72.81,0,0,0,15.91,45.51,71.69,71.69,0,0,0,55.82,27.16h.6a159.3,159.3,0,0,0,142.07-86.6,41.05,41.05,0,0,1,20.31-18.71A159.73,159.73,0,0,0,838,653.48a167.22,167.22,0,0,0-1-18.17,41.1,41.1,0,0,1,10-32.14A159.54,159.54,0,0,0,886.57,497.92Zm-43.49,85c-2.48,3.43-5.12,6.7-7.92,9.88-.32.37-.66.75-.94,1.13a57,57,0,0,0-12.9,43.11c.07.57.13,1.13.16,1.7.13,1.16.25,2.29.31,3.46a4.76,4.76,0,0,1,.07.75c.06,1,.12,2.08.19,3.08s.09,2.2.12,3.27c0,1.39.06,2.77.06,4.15,0,1.67,0,3.34-.09,5q-.2,6.09-.91,12c-.13,1.1-.25,2.2-.44,3.3-.06.53-.13,1.1-.22,1.63-.19,1.2-.38,2.36-.6,3.56-.16,1-.34,2-.53,2.92-.57,2.77-1.2,5.53-1.92,8.27-.22.82-.44,1.67-.69,2.48q-1.23,4.49-2.83,8.87c-.41,1.23-.85,2.46-1.32,3.65-.16.47-.35.91-.54,1.38-.56,1.45-1.19,2.93-1.82,4.37s-1.42,3.18-2.17,4.75c0,.1-.1.19-.13.29q-1,2.07-2.07,4.15c-.92,1.76-1.86,3.46-2.83,5.15-.76,1.29-1.51,2.58-2.3,3.84-1.19,1.92-2.42,3.84-3.68,5.66-.72,1-1.44,2.08-2.17,3.08a1,1,0,0,1-.19.25c-1,1.36-2,2.68-3,4l-.29.37c-1,1.23-2,2.43-3,3.62s-2.24,2.64-3.37,3.9c-.91,1-1.82,2-2.7,2.92-.38.41-.76.76-1.1,1.14-1.14,1.13-2.27,2.26-3.4,3.36s-2.48,2.36-3.77,3.49c-1.07,1-2.17,1.92-3.27,2.83-.38.35-.76.66-1.14,1-1.16.94-2.32,1.88-3.52,2.79s-2.61,2-3.93,2.93a141.47,141.47,0,0,1-21.73,13c-.78.38-1.6.76-2.39,1.11-1.07.5-2.13,1-3.2,1.44-.26.13-.54.22-.79.35a56.32,56.32,0,0,0-26.7,24.49,11.63,11.63,0,0,0-.59,1.1c-.57,1.07-1.14,2.17-1.73,3.24-1.73,3.24-3.62,6.35-5.63,9.4a139.83,139.83,0,0,1-18.27,22.65c-1,1-2,2-3,3a2.06,2.06,0,0,0-.41.38c-1.17,1.1-2.36,2.2-3.59,3.27s-2.42,2.11-3.68,3.15l-.09.09c-1.23,1-2.45,2-3.68,2.93s-2.23,1.69-3.36,2.51q-2,1.47-4.06,2.83c-.79.57-1.6,1.1-2.42,1.6-3.08,2-6.23,3.87-9.47,5.63-.72.41-1.44.79-2.17,1.17-1.1.56-2.2,1.13-3.33,1.66-1.54.76-3.08,1.48-4.62,2.14-1.13.54-2.27,1-3.43,1.51-.69.28-1.38.57-2.11.85-2.92,1.16-5.88,2.2-8.89,3.18-1.26.4-2.52.81-3.81,1.16-1.7.5-3.43,1-5.13,1.38s-3.11.76-4.71,1.1c-1.42.32-2.86.6-4.34.85s-3.08.57-4.66.79c-.75.12-1.5.22-2.26.31s-1.29.19-1.95.25c-.85.13-1.7.22-2.55.29a.86.86,0,0,1-.28,0c-1.35.16-2.7.25-4.06.34-1.69.13-3.36.23-5.06.29H584q-2.6.09-5.19.09H578c-31-.25-55.78-25.94-55.78-57V167c0-31,24.77-56.73,55.78-57h.82c1.7,0,3.39,0,5.06.09s3.11.13,4.65.22a3.08,3.08,0,0,0,.54,0c1.48.13,2.95.26,4.46.41.35,0,.73.07,1.1.13,1.29.12,2.58.28,3.87.47a2.28,2.28,0,0,1,.63.09c1.16.13,2.3.32,3.43.54,2.26.34,4.5.75,6.73,1.26,1.07.22,2.14.47,3.17.72.48.09.95.22,1.42.35,1.35.31,2.7.69,4,1.06l.35.1c1.38.38,2.77.82,4.15,1.23l.63.22c1.16.37,2.36.75,3.52,1.19a136.78,136.78,0,0,1,13.84,5.69c1.35.63,2.7,1.29,4,2,1.67.85,3.3,1.73,4.91,2.64,1.22.7,2.42,1.39,3.61,2.11s2.36,1.45,3.56,2.2c.85.57,1.7,1.1,2.54,1.7.63.41,1.26.82,1.86,1.23,2.58,1.82,5.09,3.67,7.55,5.62,1.19.95,2.35,1.92,3.52,2.9a1,1,0,0,0,.22.15c2.07,1.8,4.09,3.62,6.07,5.48.37.37.75.75,1.13,1.1q1.51,1.5,3,3c2.13,2.2,4.18,4.43,6.16,6.76.13.18.28.34.44.53.91,1.1,1.82,2.2,2.74,3.33s1.91,2.49,2.86,3.75,1.85,2.54,2.73,3.83,1.8,2.61,2.64,3.93c1.73,2.64,3.37,5.35,4.88,8.12.25.4.47.84.72,1.25a59.35,59.35,0,0,0,27.52,24.34c.5.19.94.44,1.44.63A140.76,140.76,0,0,1,748,217c1.54.85,3.05,1.73,4.53,2.61a1,1,0,0,0,.29.16c1.35.82,2.64,1.67,4,2.52,1.51,1,3,2,4.49,3.05s2.83,2,4.19,3.08,2.76,2.14,4.08,3.24,2.68,2.23,4,3.36,2.57,2.33,3.83,3.52c.07.07.13.1.19.16,1.2,1.17,2.36,2.33,3.52,3.49,2.08,2.11,4.09,4.31,6,6.54.47.57.94,1.1,1.42,1.67,1.76,2.07,3.45,4.21,5.09,6.41,1,1.29,1.92,2.61,2.83,3.93,1.07,1.55,2.11,3.05,3.08,4.63.54.81,1.07,1.63,1.57,2.48,1.73,2.83,3.37,5.69,4.88,8.65.69,1.29,1.35,2.61,2,3.93.82,1.7,1.6,3.4,2.36,5.16.47,1.07.94,2.13,1.35,3.24.69,1.66,1.35,3.39,2,5.12.28.72.53,1.45.76,2.2.88,2.45,1.66,4.94,2.35,7.49.26.88.51,1.76.73,2.64.37,1.38.72,2.76,1,4.15s.63,2.8.92,4.24c.19.88.34,1.8.5,2.68.28,1.44.5,2.89.72,4.37.19,1.25.38,2.54.51,3.86.12.73.18,1.48.25,2.24.31,2.76.53,5.59.66,8.46,0,.63.06,1.22.06,1.82.06,1.64.09,3.3.09,4.94,0,1.35,0,2.7-.06,4.08,0,1.7-.09,3.4-.22,5.07-.06.91-.12,1.82-.19,2.7s-.15,1.92-.28,2.86c0,.47-.06,1-.13,1.42a56.34,56.34,0,0,0,13,42.95l.63.73c.69.78,1.36,1.54,2,2.32l2.07,2.52c.66.82,1.32,1.66,2,2.48s1.29,1.7,1.92,2.55,1.23,1.7,1.82,2.58c.47.69,1,1.35,1.42,2,.6.88,1.19,1.76,1.76,2.67a5.33,5.33,0,0,0,.41.6c1.1,1.76,2.2,3.59,3.27,5.41.53.91,1,1.86,1.54,2.77l1.51,2.83c.5.94,1,1.88,1.44,2.86s1,2,1.48,3.08c1.32,2.83,2.55,5.76,3.65,8.68l1.13,3c.35,1,.69,2,1,3.05.69,2,1.35,4.12,1.92,6.19.88,3.15,1.66,6.32,2.36,9.53.15.69.28,1.35.4,2.05s.32,1.54.45,2.32c.18,1,.34,2.05.5,3.08.53,3.18.91,6.36,1.19,9.59.07.79.13,1.61.19,2.43.25,3.42.38,6.91.38,10.4s-.13,6.92-.38,10.32c-.06.88-.12,1.73-.19,2.58-.19,1.95-.37,3.9-.66,5.85-.12,1-.25,2-.41,3q-.66,4.4-1.6,8.68c-.16.88-.35,1.73-.57,2.58-.25,1.07-.5,2.11-.78,3.18-.88,3.39-1.86,6.73-3,10-.38,1.13-.75,2.23-1.16,3.33-.63,1.7-1.29,3.37-2,5-.41,1-.82,2-1.26,2.93-.28.66-.57,1.32-.85,1.95-.44.94-.88,1.88-1.32,2.8-.28.59-.57,1.19-.85,1.79s-.72,1.41-1.1,2.11c-.94,1.88-2,3.74-3,5.56l0,0c-1.07,1.86-2.17,3.65-3.3,5.44s-2.3,3.52-3.52,5.29C844.31,581.25,843.68,582.1,843.08,583Z" transform="translate(-113.43 -94.33)"/><path class="cls-1" d="M708.47,478.25a17.54,17.54,0,0,0-6.89-5.25,21.17,21.17,0,0,0-8.2-1.64h-6.56a26.9,26.9,0,0,0,0,53.79h6.56a23.24,23.24,0,0,0,8.2-1.47,17.34,17.34,0,0,0,6.89-4.76,25.07,25.07,0,0,0,4.76-8,31,31,0,0,0,1.8-11,39.76,39.76,0,0,0-1.8-12.8A28.46,28.46,0,0,0,708.47,478.25Z" transform="translate(-113.43 -94.33)"/><path class="cls-1" d="M858.27,497.92a131.15,131.15,0,0,0-32.7-86.72,69.44,69.44,0,0,1-16.73-53.43,126.5,126.5,0,0,0,.82-14.71A131.32,131.32,0,0,0,729,221.71a72.39,72.39,0,0,1-35.19-31.38,131.67,131.67,0,0,0-115-67.7h-.51c-24,.09-43.52,20-43.52,44.4V833c0,24.38,19.5,44.28,43.49,44.37h.54a131.06,131.06,0,0,0,116.91-71.28A69.39,69.39,0,0,1,730,774.36a131.46,131.46,0,0,0,79.62-120.88,134.27,134.27,0,0,0-.85-15,70.14,70.14,0,0,1,16.88-54A131.28,131.28,0,0,0,858.27,497.92ZM537.94,167c0-22.68,18.11-41.17,40.41-41.26h.47a128.57,128.57,0,0,1,112.26,66.07l0,.08a4.83,4.83,0,0,1-4.39,7.27c-2.85-.16-5.73-.25-8.62-.25a144.09,144.09,0,0,0-131,84,4.82,4.82,0,0,1-9.19-2.05ZM693,804.57l-.05.1a127.92,127.92,0,0,1-114.11,69.56h-.54c-22.23-.06-40.34-18.58-40.34-41.23V716.25a5,5,0,0,1,9.45-2.1A144.08,144.08,0,0,0,678.12,797.6q5.07,0,10.07-.35A5,5,0,0,1,693,804.57Zm70.6-250.88q-23,20.67-62,20.67H686.82a26.89,26.89,0,0,0-26.89,26.89v12.8A26.9,26.9,0,0,1,633,640.94H621.22a26.89,26.89,0,0,1-26.9-26.89v-165a26.89,26.89,0,0,1,26.9-26.89h80.36q39,0,62,17.38t23,55.44Q786.54,533,763.58,553.69Z" transform="translate(-113.43 -94.33)"/><path class="cls-1" d="M153,603.17a41.1,41.1,0,0,1,10,32.14,167.22,167.22,0,0,0-1,18.17A159.73,159.73,0,0,0,258.8,800.36a41.05,41.05,0,0,1,20.31,18.71,159.3,159.3,0,0,0,142.07,86.6h.6a71.69,71.69,0,0,0,55.82-27.16A72.81,72.81,0,0,0,493.51,833V167a72.74,72.74,0,0,0-15.95-45.54,71.57,71.57,0,0,0-55.72-27.16h-.66a160.06,160.06,0,0,0-139.74,82.22,43.19,43.19,0,0,1-21.38,19.06,159.52,159.52,0,0,0-98,147.45A162.09,162.09,0,0,0,163,361a40.24,40.24,0,0,1-9.85,31.54A159.71,159.71,0,0,0,153,603.17Zm2.07-22.76c-1.22-1.77-2.39-3.49-3.52-5.29s-2.23-3.58-3.3-5.44l0,0c-1-1.82-2.08-3.68-3-5.56-.38-.7-.72-1.39-1.1-2.11s-.57-1.2-.85-1.79c-.44-.92-.88-1.86-1.32-2.8-.28-.63-.57-1.29-.85-1.95-.44-1-.85-2-1.26-2.93-.66-1.66-1.32-3.33-2-5-.41-1.1-.78-2.2-1.16-3.33-1.13-3.3-2.11-6.64-3-10-.28-1.07-.53-2.11-.78-3.18-.22-.85-.41-1.7-.57-2.58q-.94-4.29-1.6-8.68c-.16-1-.29-2-.41-3-.29-1.95-.47-3.9-.66-5.85-.07-.85-.13-1.7-.19-2.58-.25-3.4-.38-6.86-.38-10.32s.13-7,.38-10.4c.06-.82.12-1.64.19-2.43.28-3.23.66-6.41,1.19-9.59.16-1,.32-2.07.5-3.08.13-.78.29-1.57.45-2.32s.25-1.36.4-2.05c.7-3.21,1.48-6.38,2.36-9.53.57-2.07,1.23-4.15,1.92-6.19.35-1,.69-2,1-3.05l1.13-3c1.1-2.92,2.33-5.85,3.65-8.68.5-1,1-2.07,1.48-3.08s.94-1.92,1.44-2.86l1.51-2.83c.5-.91,1-1.86,1.54-2.77,1.07-1.82,2.17-3.65,3.27-5.41a5.33,5.33,0,0,0,.41-.6c.57-.91,1.16-1.79,1.76-2.67.47-.69.95-1.35,1.42-2,.59-.88,1.19-1.73,1.82-2.58s1.29-1.7,1.92-2.55,1.29-1.66,1.95-2.48,1.38-1.67,2.07-2.52,1.33-1.54,2-2.32l.63-.73a56.34,56.34,0,0,0,13.05-42.95c-.07-.47-.1-.95-.13-1.42-.13-.94-.22-1.88-.28-2.86s-.13-1.79-.19-2.7c-.13-1.67-.19-3.37-.22-5.07,0-1.38-.06-2.73-.06-4.08,0-1.64,0-3.3.09-4.94,0-.6,0-1.19.06-1.82.13-2.87.35-5.7.66-8.46.07-.76.13-1.51.25-2.24.13-1.32.32-2.61.51-3.86.22-1.48.44-2.93.72-4.37.16-.88.31-1.8.5-2.68.29-1.44.57-2.86.92-4.24s.66-2.77,1-4.15c.22-.88.47-1.76.73-2.64.69-2.55,1.47-5,2.35-7.49.23-.75.48-1.48.76-2.2.63-1.73,1.29-3.46,2-5.12.41-1.11.88-2.17,1.35-3.24.76-1.76,1.54-3.46,2.36-5.16.63-1.32,1.29-2.64,2-3.93,1.51-3,3.15-5.82,4.88-8.65.5-.85,1-1.67,1.57-2.48,1-1.58,2-3.08,3.08-4.63.91-1.32,1.86-2.64,2.83-3.93,1.64-2.2,3.33-4.34,5.09-6.41.48-.57.95-1.1,1.42-1.67,2-2.23,4-4.43,6-6.54,1.16-1.16,2.32-2.32,3.52-3.49.06-.06.12-.09.19-.16,1.26-1.19,2.54-2.39,3.83-3.52s2.61-2.26,4-3.36,2.7-2.17,4.08-3.24,2.77-2.08,4.19-3.08,3-2.08,4.49-3.05c1.32-.85,2.61-1.7,4-2.52a1,1,0,0,0,.29-.16c1.48-.88,3-1.76,4.53-2.61a140.76,140.76,0,0,1,13.52-6.6c.5-.19.94-.44,1.44-.63a59.35,59.35,0,0,0,27.52-24.34c.25-.41.47-.85.72-1.25,1.51-2.77,3.15-5.48,4.88-8.12.84-1.32,1.73-2.64,2.64-3.93s1.79-2.58,2.73-3.83,1.89-2.52,2.86-3.75,1.83-2.23,2.74-3.33c.16-.19.31-.35.44-.53,2-2.33,4-4.56,6.16-6.76q1.47-1.51,3-3c.38-.35.76-.73,1.13-1.1,2-1.86,4-3.68,6.07-5.48a1,1,0,0,0,.22-.15c1.17-1,2.33-1.95,3.52-2.9,2.46-2,5-3.8,7.55-5.62.6-.41,1.23-.82,1.86-1.23.84-.6,1.69-1.13,2.54-1.7,1.2-.75,2.36-1.48,3.56-2.2s2.39-1.41,3.61-2.11c1.61-.91,3.24-1.79,4.91-2.64,1.32-.66,2.67-1.32,4-2a136.78,136.78,0,0,1,13.84-5.69c1.16-.44,2.36-.82,3.52-1.19l.63-.22c1.38-.41,2.77-.85,4.15-1.23l.35-.1c1.32-.37,2.67-.75,4-1.06.47-.13.94-.26,1.42-.35,1-.25,2.1-.5,3.17-.72,2.23-.51,4.47-.92,6.73-1.26,1.13-.22,2.27-.41,3.43-.54a2.28,2.28,0,0,1,.63-.09c1.29-.19,2.58-.35,3.87-.47.37-.06.75-.1,1.1-.13,1.51-.15,3-.28,4.46-.41a3.08,3.08,0,0,0,.54,0c1.54-.09,3.11-.19,4.65-.22s3.36-.09,5.06-.09H422c31,.25,55.78,25.94,55.78,57V833c0,31-24.77,56.7-55.78,57h-.82q-2.6,0-5.19-.09h-.12c-1.7-.06-3.37-.16-5.06-.29-1.36-.09-2.71-.18-4.06-.34a.86.86,0,0,1-.28,0c-.85-.07-1.7-.16-2.55-.29-.66-.06-1.32-.15-1.95-.25s-1.51-.19-2.26-.31c-1.58-.22-3.12-.47-4.66-.79s-2.92-.53-4.34-.85c-1.6-.34-3.14-.69-4.71-1.1s-3.43-.88-5.13-1.38c-1.29-.35-2.55-.76-3.81-1.16-3-1-6-2-8.89-3.18-.73-.28-1.42-.57-2.11-.85-1.16-.47-2.3-1-3.43-1.51-1.54-.66-3.08-1.38-4.62-2.14-1.13-.53-2.23-1.1-3.33-1.66-.73-.38-1.45-.76-2.17-1.17-3.24-1.76-6.39-3.61-9.47-5.63-.82-.5-1.63-1-2.42-1.6q-2-1.37-4.06-2.83c-1.13-.82-2.23-1.67-3.36-2.51s-2.45-2-3.68-2.93l-.09-.09c-1.26-1-2.49-2.08-3.68-3.15s-2.42-2.17-3.59-3.27a2.06,2.06,0,0,0-.41-.38c-1-1-2-2-3.05-3a139.83,139.83,0,0,1-18.27-22.65c-2-3-3.9-6.16-5.63-9.4-.59-1.07-1.16-2.17-1.73-3.24a11.63,11.63,0,0,0-.59-1.1,56.32,56.32,0,0,0-26.7-24.49c-.25-.13-.53-.22-.79-.35-1.07-.47-2.13-.94-3.2-1.44-.79-.35-1.61-.73-2.39-1.11a141.47,141.47,0,0,1-21.73-13c-1.32-.94-2.64-1.92-3.93-2.93s-2.36-1.85-3.52-2.79c-.38-.32-.76-.63-1.14-1-1.1-.91-2.2-1.85-3.27-2.83-1.29-1.13-2.54-2.29-3.77-3.49s-2.26-2.23-3.4-3.36c-.34-.38-.72-.73-1.1-1.14-.88-.94-1.79-1.91-2.7-2.92-1.13-1.26-2.26-2.58-3.37-3.9s-2-2.39-3-3.62l-.29-.37c-1-1.32-2-2.64-3-4a1,1,0,0,1-.19-.25c-.73-1-1.45-2-2.17-3.08-1.26-1.82-2.49-3.74-3.68-5.66-.79-1.26-1.54-2.55-2.3-3.84-1-1.69-1.91-3.39-2.83-5.15Q193,718,192,716c0-.1-.1-.19-.13-.29-.75-1.57-1.48-3.17-2.17-4.75s-1.26-2.92-1.82-4.37c-.19-.47-.38-.91-.54-1.38-.47-1.19-.91-2.42-1.32-3.65q-1.6-4.38-2.83-8.87c-.25-.81-.47-1.66-.69-2.48-.72-2.74-1.35-5.5-1.92-8.27-.19-1-.37-1.95-.53-2.92-.22-1.2-.41-2.36-.6-3.56-.09-.53-.16-1.1-.22-1.63-.19-1.1-.31-2.2-.44-3.3q-.71-6-.91-12c-.06-1.63-.09-3.3-.09-5,0-1.38,0-2.76.06-4.15,0-1.07.06-2.17.12-3.27s.13-2,.19-3.08a4.76,4.76,0,0,1,.07-.75c.06-1.17.18-2.3.31-3.46,0-.57.09-1.13.16-1.7A57,57,0,0,0,165.78,594c-.28-.38-.62-.76-.94-1.13-2.8-3.18-5.44-6.45-7.92-9.88C156.32,582.1,155.69,581.25,155.09,580.41Z" transform="translate(-113.43 -94.33)"/><path class="cls-1" d="M308.87,191.92a4.83,4.83,0,0,0,4.39,7.27c2.85-.16,5.73-.25,8.62-.25a144.09,144.09,0,0,1,131,84,4.82,4.82,0,0,0,9.19-2.05V167c0-22.68-18.11-41.17-40.41-41.26h-.47a128.57,128.57,0,0,0-112.26,66.07Z" transform="translate(-113.43 -94.33)"/><path class="cls-1" d="M311.81,797.25a5,5,0,0,0-4.79,7.32l.05.1a127.92,127.92,0,0,0,114.11,69.56h.54c22.23-.06,40.34-18.58,40.34-41.23V716.25a5,5,0,0,0-9.45-2.1A144.08,144.08,0,0,1,321.88,797.6Q316.81,797.6,311.81,797.25Z" transform="translate(-113.43 -94.33)"/><path class="cls-1" d="M343.72,574.36H329q-39,0-62-20.67T244,495q0-38.06,23-55.44t62-17.38h80.36a26.89,26.89,0,0,1,26.9,26.89v165a26.89,26.89,0,0,1-26.9,26.89h-11.8a26.89,26.89,0,0,1-26.9-26.89v-12.8A26.89,26.89,0,0,0,343.72,574.36Zm26.9-76.1a26.9,26.9,0,0,0-26.9-26.9h-6.56A21.17,21.17,0,0,0,329,473a17.68,17.68,0,0,0-6.89,5.25,28.45,28.45,0,0,0-4.75,8.85,39.75,39.75,0,0,0-1.81,12.8,31,31,0,0,0,1.81,11,25.05,25.05,0,0,0,4.75,8,17.48,17.48,0,0,0,6.89,4.76,23.24,23.24,0,0,0,8.2,1.47h6.56a26.89,26.89,0,0,0,26.9-26.89Z" transform="translate(-113.43 -94.33)"/></g></svg>