<svg width="102" height="111" viewBox="0 0 102 111" fill="none" xmlns="http://www.w3.org/2000/svg">
<path d="M93.5 9H76.5V0.5H68V9H34V0.5H25.5V9H8.5C6.24635 9.00225 4.08565 9.89851 2.49208 11.4921C0.898507 13.0857 0.00225028 15.2464 0 17.5V102.5C0.00225028 104.754 0.898507 106.914 2.49208 108.508C4.08565 110.101 6.24635 110.998 8.5 111H93.5C95.7536 110.998 97.9144 110.101 99.5079 108.508C101.101 106.914 101.998 104.754 102 102.5V17.5C101.998 15.2464 101.101 13.0857 99.5079 11.4921C97.9144 9.89851 95.7536 9.00225 93.5 9ZM8.5 17.5H25.5V26H34V17.5H68V26H76.5V17.5H93.5V34.5H8.5V17.5ZM8.5 43H29.75V68.5H8.5V43ZM63.75 102.5H38.25V77H63.75V102.5ZM63.75 68.5H38.25V43H63.75V68.5ZM72.25 102.5V77H93.5L93.5042 102.5H72.25Z" fill="white"/>
</svg>
