<svg width="68" height="58" viewBox="0 0 68 58" fill="none" xmlns="http://www.w3.org/2000/svg">
<path fill-rule="evenodd" clip-rule="evenodd" d="M4.3125 0.875C3.36767 0.875 2.46153 1.25033 1.79343 1.91843C1.12533 2.58653 0.75 3.49267 0.75 4.4375C0.75 5.38233 1.12533 6.28847 1.79343 6.95657C2.46153 7.62467 3.36767 8 4.3125 8H54.1875C55.1323 8 56.0385 7.62467 56.7066 6.95657C57.3747 6.28847 57.75 5.38233 57.75 4.4375C57.75 3.49267 57.3747 2.58653 56.7066 1.91843C56.0385 1.25033 55.1323 0.875 54.1875 0.875H4.3125ZM23.3125 24.625C22.3677 24.625 21.4615 25.0003 20.7934 25.6684C20.1253 26.3365 19.75 27.2427 19.75 28.1875C19.75 29.1323 20.1253 30.0385 20.7934 30.7066C21.4615 31.3747 22.3677 31.75 23.3125 31.75H63.6875C64.6323 31.75 65.5385 31.3747 66.2066 30.7066C66.8747 30.0385 67.25 29.1323 67.25 28.1875C67.25 27.2427 66.8747 26.3365 66.2066 25.6684C65.5385 25.0003 64.6323 24.625 63.6875 24.625H23.3125ZM23.3125 48.375C22.3677 48.375 21.4615 48.7503 20.7934 49.4184C20.1253 50.0865 19.75 50.9927 19.75 51.9375C19.75 52.8823 20.1253 53.7885 20.7934 54.4566C21.4615 55.1247 22.3677 55.5 23.3125 55.5H63.6875C64.6323 55.5 65.5385 55.1247 66.2066 54.4566C66.8747 53.7885 67.25 52.8823 67.25 51.9375C67.25 50.9927 66.8747 50.0865 66.2066 49.4184C65.5385 48.7503 64.6323 48.375 63.6875 48.375H23.3125ZM7.875 25.8125C7.875 24.8677 7.49967 23.9615 6.83157 23.2934C6.16347 22.6253 5.25733 22.25 4.3125 22.25C3.36767 22.25 2.46153 22.6253 1.79343 23.2934C1.12533 23.9615 0.75 24.8677 0.75 25.8125V54.3125C0.75 55.2573 1.12533 56.1635 1.79343 56.8316C2.46153 57.4997 3.36767 57.875 4.3125 57.875C5.25733 57.875 6.16347 57.4997 6.83157 56.8316C7.49967 56.1635 7.875 55.2573 7.875 54.3125V25.8125Z" fill="white"/>
</svg>
