<svg width="104" height="104" viewBox="0 0 104 104" fill="none" xmlns="http://www.w3.org/2000/svg">
<path d="M53.5 7.85942C53.5 3.83775 56.7596 0.583374 60.776 0.583374H80.6198C84.6414 0.583374 87.8958 3.84304 87.8958 7.85942V37.625H79.9583V8.52087H61.4375V27.7032C61.4375 31.7248 58.1778 34.9792 54.1614 34.9792H34.9791V54.1615C34.9791 58.1832 31.7195 61.4375 27.7031 61.4375H8.52081V79.9584H37.625V87.8959H7.85935C3.83769 87.8959 0.583313 84.6362 0.583313 80.6198V60.7761C0.583313 56.7544 3.84298 53.5 7.85935 53.5H27.0416V34.3177C27.0416 30.2961 30.3013 27.0417 34.3177 27.0417H53.5V7.85942ZM69.375 50.1927C69.375 46.1711 72.6346 42.9167 76.651 42.9167H96.4948C100.516 42.9167 103.771 46.1764 103.771 50.1927V86.573C103.771 91.1341 101.959 95.5085 98.7337 98.7337C95.5084 101.959 91.1341 103.771 86.5729 103.771H50.1927C46.171 103.771 42.9166 100.511 42.9166 96.4948V76.6511C42.9166 72.6294 46.1763 69.375 50.1927 69.375H69.375V50.1927Z" fill="white"/>
</svg>
