<svg width="92" height="78" viewBox="0 0 92 78" fill="none" xmlns="http://www.w3.org/2000/svg">
<path d="M75.2292 39C75.2292 41.0223 74.4259 42.9617 72.9959 44.3917C71.5659 45.8217 69.6265 46.625 67.6042 46.625C65.5819 46.625 63.6425 45.8217 62.2125 44.3917C60.7826 42.9617 59.9792 41.0223 59.9792 39C59.9792 36.9777 60.7826 35.0383 62.2125 33.6083C63.6425 32.1783 65.5819 31.375 67.6042 31.375C69.6265 31.375 71.5659 32.1783 72.9959 33.6083C74.4259 35.0383 75.2292 36.9777 75.2292 39ZM56.1667 59.3333C56.1667 57.3111 56.9701 55.3716 58.4 53.9416C59.83 52.5117 61.7694 51.7083 63.7917 51.7083H71.4167C73.439 51.7083 75.3784 52.5117 76.8084 53.9416C78.2383 55.3716 79.0417 57.3111 79.0417 59.3333V64.4167H56.1667V59.3333ZM32.0209 39C32.0209 41.0223 31.2175 42.9617 29.7876 44.3917C28.3576 45.8217 26.4181 46.625 24.3959 46.625C22.3736 46.625 20.4341 45.8217 19.0042 44.3917C17.5742 42.9617 16.7709 41.0223 16.7709 39C16.7709 36.9777 17.5742 35.0383 19.0042 33.6083C20.4341 32.1783 22.3736 31.375 24.3959 31.375C26.4181 31.375 28.3576 32.1783 29.7876 33.6083C31.2175 35.0383 32.0209 36.9777 32.0209 39ZM12.9584 59.3333C12.9584 57.3111 13.7617 55.3716 15.1917 53.9416C16.6216 52.5117 18.5611 51.7083 20.5834 51.7083H28.2084C30.2306 51.7083 32.1701 52.5117 33.6001 53.9416C35.03 55.3716 35.8334 57.3111 35.8334 59.3333V64.4167H12.9584V59.3333ZM51.0834 45.3542C51.0834 46.7023 50.5478 47.9953 49.5945 48.9486C48.6412 49.9019 47.3482 50.4375 46 50.4375C44.6519 50.4375 43.3589 49.9019 42.4056 48.9486C41.4523 47.9953 40.9167 46.7023 40.9167 45.3542C40.9167 44.006 41.4523 42.713 42.4056 41.7597C43.3589 40.8064 44.6519 40.2708 46 40.2708C47.3482 40.2708 48.6412 40.8064 49.5945 41.7597C50.5478 42.713 51.0834 44.006 51.0834 45.3542ZM38.375 61.875C38.375 59.8527 39.1784 57.9133 40.6083 56.4833C42.0383 55.0533 43.9778 54.25 46 54.25C48.0223 54.25 49.9618 55.0533 51.3917 56.4833C52.8217 57.9133 53.625 59.8527 53.625 61.875V64.4167H38.375V61.875Z" fill="white"/>
<path fill-rule="evenodd" clip-rule="evenodd" d="M51.0071 21.2083H84.125C84.7991 21.2083 85.4456 21.4761 85.9222 21.9528C86.3989 22.4294 86.6667 23.0759 86.6667 23.75V69.5C86.6667 70.1741 86.3989 70.8206 85.9222 71.2972C85.4456 71.7739 84.7991 72.0417 84.125 72.0417H7.875C7.20091 72.0417 6.55443 71.7739 6.07777 71.2972C5.60112 70.8206 5.33333 70.1741 5.33333 69.5V8.5C5.33333 7.82591 5.60112 7.17943 6.07777 6.70277C6.55443 6.22612 7.20091 5.95833 7.875 5.95833H41.1251C41.5805 5.95796 42.0277 6.07995 42.4198 6.31156C42.8119 6.54317 43.1346 6.87589 43.3541 7.27492L47.8097 4.82729C47.1517 3.63012 46.1841 2.6317 45.0082 1.93643C43.8323 1.24116 42.4912 0.874574 41.1251 0.875H7.875C5.85272 0.875 3.91328 1.67835 2.48331 3.10831C1.05335 4.53828 0.25 6.47773 0.25 8.5V69.5C0.25 71.5223 1.05335 73.4617 2.48331 74.8917C3.91328 76.3217 5.85272 77.125 7.875 77.125H84.125C86.1473 77.125 88.0867 76.3217 89.5167 74.8917C90.9467 73.4617 91.75 71.5223 91.75 69.5V23.75C91.75 21.7277 90.9467 19.7883 89.5167 18.3583C88.0867 16.9283 86.1473 16.125 84.125 16.125H54.0164L47.8097 4.82729L43.3541 7.27492L51.0071 21.2083Z" fill="white"/>
<path fill-rule="evenodd" clip-rule="evenodd" d="M5.33337 16.125H54.8959V21.2083H5.33337V16.125Z" fill="white"/>
</svg>
