<svg width="86" height="86" viewBox="0 0 86 86" fill="none" xmlns="http://www.w3.org/2000/svg">
<path d="M4.75 17.5C2.4125 17.5 0.5 19.4125 0.5 21.75V77C0.5 81.675 4.325 85.5 9 85.5H64.25C66.5875 85.5 68.5 83.5875 68.5 81.25C68.5 78.9125 66.5875 77 64.25 77H13.25C10.9125 77 9 75.0875 9 72.75V21.75C9 19.4125 7.0875 17.5 4.75 17.5ZM77 0.5H26C21.325 0.5 17.5 4.325 17.5 9V60C17.5 64.675 21.325 68.5 26 68.5H77C81.675 68.5 85.5 64.675 85.5 60V9C85.5 4.325 81.675 0.5 77 0.5ZM68.5 38.75H34.5C32.1625 38.75 30.25 36.8375 30.25 34.5C30.25 32.1625 32.1625 30.25 34.5 30.25H68.5C70.8375 30.25 72.75 32.1625 72.75 34.5C72.75 36.8375 70.8375 38.75 68.5 38.75ZM51.5 55.75H34.5C32.1625 55.75 30.25 53.8375 30.25 51.5C30.25 49.1625 32.1625 47.25 34.5 47.25H51.5C53.8375 47.25 55.75 49.1625 55.75 51.5C55.75 53.8375 53.8375 55.75 51.5 55.75ZM68.5 21.75H34.5C32.1625 21.75 30.25 19.8375 30.25 17.5C30.25 15.1625 32.1625 13.25 34.5 13.25H68.5C70.8375 13.25 72.75 15.1625 72.75 17.5C72.75 19.8375 70.8375 21.75 68.5 21.75Z" fill="#170038"/>
</svg>
