<svg width="29" height="26" viewBox="0 0 29 26" fill="red" xmlns="http://www.w3.org/2000/svg">
<path d="M14.0523 2.25443C14.2367 2.07024 14.4867 1.96677 14.7473 1.96677C15.008 1.96677 15.258 2.07024 15.4424 2.25443L26.839 13.651C26.9291 13.7477 27.0377 13.8252 27.1583 13.879C27.279 13.9327 27.4092 13.9616 27.5413 13.964C27.6734 13.9663 27.8046 13.942 27.927 13.8925C28.0495 13.843 28.1608 13.7694 28.2542 13.676C28.3476 13.5826 28.4212 13.4714 28.4707 13.3489C28.5201 13.2264 28.5444 13.0952 28.5421 12.9632C28.5398 12.8311 28.5109 12.7008 28.4571 12.5802C28.4033 12.4595 28.3258 12.3509 28.2292 12.2609L16.8339 0.86428C16.5599 0.59027 16.2346 0.372913 15.8766 0.224619C15.5186 0.0763257 15.1349 0 14.7473 0C14.3598 0 13.9761 0.0763257 13.6181 0.224619C13.2601 0.372913 12.9348 0.59027 12.6608 0.86428L1.26419 12.2609C1.08511 12.4465 0.986083 12.695 0.988445 12.9529C0.990806 13.2108 1.09437 13.4574 1.27682 13.6397C1.45927 13.822 1.70602 13.9253 1.96392 13.9274C2.22182 13.9296 2.47023 13.8303 2.65566 13.651L14.0523 2.25443Z" fill="black"/>
<path d="M14.7473 4.34222L25.4475 15.0424C25.4869 15.0818 25.5262 15.1185 25.5669 15.1552V23.2837C25.5669 24.6411 24.4653 25.7427 23.1079 25.7427H18.6817C18.4208 25.7427 18.1706 25.6391 17.9862 25.4546C17.8017 25.2701 17.6981 25.0199 17.6981 24.7591V18.8575C17.6981 18.5966 17.5945 18.3465 17.41 18.162C17.2255 17.9775 16.9754 17.8739 16.7145 17.8739H12.7801C12.5192 17.8739 12.2691 17.9775 12.0846 18.162C11.9001 18.3465 11.7965 18.5966 11.7965 18.8575V24.7591C11.7965 25.0199 11.6929 25.2701 11.5084 25.4546C11.324 25.6391 11.0738 25.7427 10.8129 25.7427H6.38673C5.73456 25.7427 5.10911 25.4836 4.64796 25.0225C4.18681 24.5613 3.92773 23.9359 3.92773 23.2837V15.1552C3.96854 15.1187 4.00833 15.0811 4.04708 15.0424L14.7473 4.3396V4.34222Z" fill="black"/>
</svg>
