<svg width="86" height="98" viewBox="0 0 86 98" fill="none" xmlns="http://www.w3.org/2000/svg">
<path d="M43 49C56.5719 49 67.5714 38.0324 67.5714 24.5C67.5714 10.9676 56.5719 0 43 0C29.4281 0 18.4286 10.9676 18.4286 24.5C18.4286 38.0324 29.4281 49 43 49ZM60.2 55.125H56.9942C52.7326 57.0773 47.9911 58.1875 43 58.1875C38.0089 58.1875 33.2866 57.0773 29.0058 55.125H25.8C11.5562 55.125 0 66.6477 0 80.85V88.8125C0 93.8848 4.12723 98 9.21429 98H76.7857C81.8728 98 86 93.8848 86 88.8125V80.85C86 66.6477 74.4437 55.125 60.2 55.125Z" fill="#170038"/>
</svg>
