<svg width="68" height="80" viewBox="0 0 68 80" fill="none" xmlns="http://www.w3.org/2000/svg">
<path d="M9.47916 0.833374C7.14194 0.833374 4.90044 1.76183 3.24778 3.4145C1.59511 5.06716 0.666656 7.30865 0.666656 9.64587V70.3542C0.666656 72.6914 1.59511 74.9329 3.24778 76.5856C4.90044 78.2382 7.14194 79.1667 9.47916 79.1667H38.8542C41.1772 79.1668 43.4063 78.2496 45.0566 76.6147C46.707 74.9798 47.645 72.7594 47.6667 70.4365V64.4831C47.6667 63.704 47.3572 62.9569 46.8063 62.406C46.2554 61.8551 45.5082 61.5456 44.7292 61.5456C42.951 61.5456 41.8308 61.0639 41.0592 60.4411C40.2446 59.787 39.5709 58.7765 39.0617 57.3509C37.9925 54.3938 37.875 50.4967 37.875 46.8542C37.8749 46.1096 37.5922 45.3929 37.0838 44.8489L36.4415 44.1556C36.2303 43.9195 36.0081 43.6934 35.7757 43.478C35.4858 43.2039 34.6007 42.3618 31.1383 38.9034C29.3053 37.0665 28.287 35.5155 27.9541 34.3287C27.8206 33.9174 27.8003 33.4777 27.8953 33.0558C28.0414 32.5692 28.3177 32.1317 28.6943 31.7907C29.034 31.4144 29.4701 31.1381 29.9555 30.9917C30.3764 30.8981 30.8148 30.9197 31.2245 31.0544C32.4112 31.3873 33.9622 32.4095 35.7992 34.2465C37.9142 36.3615 39.9195 38.3433 41.7172 40.1215C44.6939 43.0668 47.0987 45.4481 48.4539 46.8973C48.9852 47.4676 49.7213 47.8034 50.5003 47.831C51.2793 47.8585 52.0372 47.5755 52.6075 47.0442C53.1778 46.5128 53.5137 45.7767 53.5412 44.9978C53.5688 44.2188 53.2857 43.4608 52.7544 42.8905C51.086 41.1468 49.3885 39.431 47.6627 37.744V24.5684L58.7939 35.6995C60.4467 37.3524 61.375 39.5927 61.375 41.927V76.2292C61.375 77.0083 61.6845 77.7554 62.2354 78.3063C62.7862 78.8572 63.5334 79.1667 64.3125 79.1667C65.0916 79.1667 65.8387 78.8572 66.3896 78.3063C66.9405 77.7554 67.25 77.0083 67.25 76.2292V41.931C67.2503 40.002 66.8707 38.0919 66.1329 36.3097C65.395 34.5275 64.3133 32.9081 62.9495 31.544L47.6667 16.2611V9.64196C47.6656 7.30542 46.7367 5.06493 45.0841 3.41311C43.4316 1.76129 41.1907 0.833374 38.8542 0.833374H9.47916ZM33.5353 59.3484C33.9113 60.398 34.4009 61.4399 35.0354 62.4112C33.5395 63.1305 32.2771 64.2576 31.3936 65.6629C30.5101 67.0681 30.0415 68.6943 30.0417 70.3542V73.2917H18.2917V70.3542C18.2917 68.017 17.3632 65.7755 15.7105 64.1228C14.0579 62.4702 11.8164 61.5417 9.47916 61.5417H6.54166V18.4584H9.47916C11.8164 18.4584 14.0579 17.5299 15.7105 15.8773C17.3632 14.2246 18.2917 11.9831 18.2917 9.64587V6.70837H30.0417V9.64587C30.0417 11.9831 30.9701 14.2246 32.6228 15.8773C34.2754 17.5299 36.5169 18.4584 38.8542 18.4584H41.7917V31.9239L39.9508 30.0909C37.875 28.0111 35.4545 26.1429 32.8225 25.3987C31.4155 24.982 29.9229 24.9482 28.4985 25.3008C27.6148 25.5297 26.7764 25.9072 26.0192 26.417C23.8048 26.115 21.5502 26.3589 19.4516 27.1276C17.3531 27.8963 15.4743 29.1664 13.9789 30.8273C12.4836 32.4882 11.4169 34.4896 10.872 36.657C10.327 38.8244 10.3203 41.0923 10.8523 43.2629C11.3843 45.4335 12.439 47.4412 13.9244 49.111C15.4099 50.7808 17.2811 52.0621 19.375 52.8433C21.4689 53.6244 23.7221 53.8818 25.9382 53.593C28.1544 53.3041 30.2663 52.4778 32.0901 51.186C32.2389 53.865 32.6032 56.7751 33.5353 59.3484ZM16.3333 40C16.3327 38.2942 16.889 36.6348 17.9176 35.274C18.9461 33.9132 20.3908 32.9253 22.0321 32.4605C21.881 33.6193 21.9717 34.7968 22.2984 35.9189C23.0426 38.5548 24.903 40.9753 26.9867 43.059L29.5912 45.6518C28.4834 46.7153 27.0873 47.4296 25.5767 47.7061C24.0661 47.9825 22.5075 47.8088 21.0948 47.2066C19.6821 46.6044 18.4776 45.6002 17.631 44.3189C16.7845 43.0376 16.3332 41.5357 16.3333 40ZM6.54166 9.64587C6.54166 8.8668 6.85114 8.11964 7.40203 7.56875C7.95292 7.01786 8.70008 6.70837 9.47916 6.70837H12.4167V9.64587C12.4167 10.4249 12.1072 11.1721 11.5563 11.723C11.0054 12.2739 10.2582 12.5834 9.47916 12.5834H6.54166V9.64587ZM35.9167 6.70837H38.8542C39.6332 6.70837 40.3804 7.01786 40.9313 7.56875C41.4822 8.11964 41.7917 8.8668 41.7917 9.64587V12.5834H38.8542C38.0751 12.5834 37.3279 12.2739 36.777 11.723C36.2261 11.1721 35.9167 10.4249 35.9167 9.64587V6.70837ZM41.7917 67.4167V70.3542C41.7917 71.1333 41.4822 71.8804 40.9313 72.4313C40.3804 72.9822 39.6332 73.2917 38.8542 73.2917H35.9167V70.3542C35.9167 69.5751 36.2261 68.828 36.777 68.2771C37.3279 67.7262 38.0751 67.4167 38.8542 67.4167H41.7917ZM12.4167 73.2917H9.47916C8.70008 73.2917 7.95292 72.9822 7.40203 72.4313C6.85114 71.8804 6.54166 71.1333 6.54166 70.3542V67.4167H9.47916C10.2582 67.4167 11.0054 67.7262 11.5563 68.2771C12.1072 68.828 12.4167 69.5751 12.4167 70.3542V73.2917Z" fill="white"/>
</svg>
