<svg width="94" height="94" viewBox="0 0 94 94" fill="none" xmlns="http://www.w3.org/2000/svg">
<path d="M38.3 73.1C37.5308 73.1 36.7932 73.4055 36.2494 73.9494C35.7055 74.4932 35.4 75.2308 35.4 76C35.4 76.7691 35.7055 77.5067 36.2494 78.0506C36.7932 78.5944 37.5308 78.9 38.3 78.9H55.7C56.4691 78.9 57.2067 78.5944 57.7506 78.0506C58.2944 77.5067 58.6 76.7691 58.6 76C58.6 75.2308 58.2944 74.4932 57.7506 73.9494C57.2067 73.4055 56.4691 73.1 55.7 73.1H38.3ZM29.6 0.599976C26.5235 0.599976 23.573 1.82211 21.3975 3.99754C19.2221 6.17296 18 9.12346 18 12.2V81.8C18 84.8765 19.2221 87.827 21.3975 90.0024C23.573 92.1778 26.5235 93.4 29.6 93.4H64.4C67.4765 93.4 70.427 92.1778 72.6024 90.0024C74.7778 87.827 76 84.8765 76 81.8V12.2C76 9.12346 74.7778 6.17296 72.6024 3.99754C70.427 1.82211 67.4765 0.599976 64.4 0.599976H29.6ZM23.8 12.2C23.8 10.6617 24.411 9.18647 25.4987 8.09876C26.5865 7.01104 28.0617 6.39998 29.6 6.39998H64.4C65.9382 6.39998 67.4135 7.01104 68.5012 8.09876C69.5889 9.18647 70.2 10.6617 70.2 12.2V81.8C70.2 83.3382 69.5889 84.8135 68.5012 85.9012C67.4135 86.9889 65.9382 87.6 64.4 87.6H29.6C28.0617 87.6 26.5865 86.9889 25.4987 85.9012C24.411 84.8135 23.8 83.3382 23.8 81.8V12.2ZM5.91277 30.8934C5.47642 30.278 4.81743 29.8568 4.07566 29.7193C3.3339 29.5818 2.56774 29.7388 1.93981 30.1569C1.31188 30.575 0.871597 31.2214 0.712405 31.9588C0.553214 32.6962 0.687646 33.4667 1.08717 34.1066L3.29117 37.4126C4.93837 39.8834 5.13557 43.0502 3.80737 45.7066C2.69904 47.9248 2.19633 50.3964 2.35012 52.8713C2.50391 55.3463 3.30874 57.7366 4.68317 59.8006L6.88717 63.1066C7.09265 63.4357 7.36208 63.7202 7.6795 63.9433C7.99693 64.1664 8.3559 64.3236 8.73515 64.4055C9.11441 64.4873 9.50624 64.4923 9.88743 64.42C10.2686 64.3477 10.6314 64.1996 10.9544 63.9846C11.2773 63.7696 11.5539 63.4919 11.7676 63.1681C11.9813 62.8442 12.1278 62.4808 12.1985 62.0993C12.2692 61.7178 12.2627 61.326 12.1793 60.9471C12.0958 60.5682 11.9372 60.2099 11.7128 59.8934L9.50877 56.5874C8.69913 55.3731 8.22495 53.9664 8.13429 52.5099C8.04364 51.0533 8.33974 49.5986 8.99257 48.2934C10.1009 46.0752 10.6036 43.6035 10.4498 41.1286C10.296 38.6537 9.49119 36.2633 8.11677 34.1994L5.91277 30.8934ZM83.0934 30.0872C83.7334 29.6614 84.5163 29.5072 85.2699 29.6583C86.0236 29.8095 86.6864 30.2537 87.1128 30.8934L89.3168 34.1994C92.1182 38.3986 92.4488 43.781 90.1926 48.2934C89.54 49.599 89.2446 51.054 89.3362 52.5107C89.4279 53.9674 89.9035 55.3739 90.7146 56.5874L92.9186 59.8934C93.1295 60.2106 93.276 60.5663 93.3495 60.9401C93.423 61.3139 93.4222 61.6986 93.3471 62.0721C93.2719 62.4456 93.124 62.8006 92.9116 63.117C92.6993 63.4333 92.4267 63.7047 92.1095 63.9157C91.7922 64.1267 91.4365 64.2731 91.0627 64.3466C90.6889 64.4201 90.3043 64.4193 89.9307 64.3442C89.5572 64.269 89.2022 64.1211 88.8859 63.9087C88.5695 63.6964 88.2981 63.4238 88.0872 63.1066L85.8832 59.8006C84.5087 57.7366 83.7039 55.3463 83.5501 52.8713C83.3963 50.3964 83.899 47.9248 85.0074 45.7066C85.6593 44.4008 85.9545 42.9459 85.8628 41.4893C85.7711 40.0327 85.2959 38.6263 84.4854 37.4126L82.2872 34.1066C81.8614 33.4666 81.7072 32.6837 81.8583 31.93C82.0095 31.1763 82.4537 30.5135 83.0934 30.0872Z" fill="white"/>
</svg>
