<svg width="94" height="102" viewBox="0 0 94 102" fill="none" xmlns="http://www.w3.org/2000/svg">
<path d="M40.9167 0.166687C50.7913 0.167331 60.3286 3.76 67.7495 10.2746C75.1704 16.7891 79.9681 25.7807 81.2478 35.5721L92.6853 53.562C93.4377 54.7464 93.2852 56.5103 91.5416 57.2627L81.5833 61.5225V76.4167C81.5833 79.113 80.5122 81.699 78.6056 83.6056C76.699 85.5122 74.113 86.5834 71.4167 86.5834H61.2551L61.25 101.833H15.5V83.0555C15.5 77.0572 13.2837 71.3791 9.17633 66.2551C4.38659 60.2747 1.38381 53.0628 0.513929 45.4503C-0.355948 37.8377 0.942473 30.1343 4.2596 23.2276C7.57673 16.3208 12.7776 10.4916 19.263 6.41163C25.7485 2.33166 33.2546 0.166876 40.9167 0.166687ZM40.9167 10.3334C35.1704 10.3331 29.5409 11.9562 24.6767 15.0156C19.8126 18.075 15.9117 22.4463 13.4233 27.6259C10.935 32.8055 9.96051 38.5827 10.6121 44.2919C11.2637 50.0011 13.5149 55.4101 17.1063 59.8959C22.6675 66.8295 25.6667 74.7239 25.6667 83.0555V91.6667H51.0833L51.0935 76.4167H71.4167V54.8227L79.2958 51.4473L71.4522 39.1203L71.1625 36.8734C70.2002 29.5326 66.601 22.7923 61.0361 17.9092C55.4712 13.0261 48.3203 10.3335 40.9167 10.3334ZM40.9167 25.5834C42.2648 25.5834 43.5578 26.1189 44.5111 27.0722C45.4644 28.0255 46 29.3185 46 30.6667V35.75H51.0833C52.4315 35.75 53.7245 36.2856 54.6778 37.2389C55.6311 38.1922 56.1667 39.4852 56.1667 40.8334C56.1667 42.1815 55.6311 43.4745 54.6778 44.4278C53.7245 45.3811 52.4315 45.9167 51.0833 45.9167H46V51C46 52.3482 45.4644 53.6412 44.5111 54.5945C43.5578 55.5478 42.2648 56.0834 40.9167 56.0834C39.5685 56.0834 38.2755 55.5478 37.3222 54.5945C36.3689 53.6412 35.8333 52.3482 35.8333 51V45.9116L30.75 45.9167C29.4018 45.9167 28.1088 45.3811 27.1555 44.4278C26.2022 43.4745 25.6667 42.1815 25.6667 40.8334C25.6667 39.4852 26.2022 38.1922 27.1555 37.2389C28.1088 36.2856 29.4018 35.75 30.75 35.75L35.8333 35.7449V30.6667C35.8333 29.3185 36.3689 28.0255 37.3222 27.0722C38.2755 26.1189 39.5685 25.5834 40.9167 25.5834Z" fill="#170038"/>
</svg>
