<svg width="59" height="59" viewBox="0 0 59 59" fill="none" xmlns="http://www.w3.org/2000/svg">
<path d="M53.9604 21.4391L53.8989 21.0261L53.835 21.0409C53.3982 18.9981 52.3919 17.1208 50.9326 15.626C49.4733 14.1313 47.6205 13.0804 45.5888 12.5948C43.5571 12.1091 41.4293 12.2087 39.4518 12.882C37.4743 13.5552 35.7279 14.7746 34.4145 16.3991C33.1011 18.0235 32.2746 19.9866 32.0304 22.0613C31.7863 24.1359 32.1345 26.2373 33.0349 28.1223C33.9353 30.0073 35.351 31.5988 37.1182 32.7127C38.8854 33.8266 40.9319 34.4174 43.0208 34.4167C43.569 34.4167 44.0951 34.3331 44.6187 34.2569C44.4491 34.8272 44.2746 35.4074 43.9943 35.9286C43.7141 36.6857 43.2765 37.3421 42.8414 38.0034C42.4775 38.7188 41.8359 39.2031 41.3639 39.8152C40.8698 40.4101 40.1962 40.8059 39.6627 41.3C39.1391 41.8163 38.4532 42.0744 37.9075 42.4382C37.3372 42.7652 36.8406 43.1266 36.3096 43.2986L34.9845 43.8444L33.8193 44.3287L35.0091 49.0954L36.4767 48.7414C36.9463 48.6234 37.5191 48.4857 38.1705 48.321C38.8367 48.1981 39.5472 47.8613 40.3388 47.554C41.1181 47.2025 42.0252 46.9689 42.866 46.406C43.7116 45.8701 44.6876 45.4226 45.548 44.7048C46.3814 43.9649 47.3868 43.3232 48.1292 42.3841C48.9405 41.5041 49.7419 40.5797 50.3639 39.5276C51.0842 38.5246 51.5734 37.4232 52.0896 36.3342C52.5567 35.2451 52.9328 34.1315 53.2401 33.0499C53.8227 30.8816 54.0833 28.8215 54.1841 27.0589C54.2677 25.2938 54.2185 23.8262 54.1153 22.7642C54.0807 22.3207 54.0291 21.8787 53.9604 21.4391V21.4391ZM26.9187 21.4391L26.8573 21.0261L26.7934 21.0409C26.3565 18.9981 25.3502 17.1208 23.8909 15.626C22.4316 14.1313 20.5789 13.0804 18.5471 12.5948C16.5154 12.1091 14.3877 12.2087 12.4102 12.882C10.4327 13.5552 8.68619 14.7746 7.37283 16.3991C6.05946 18.0235 5.23289 19.9866 4.98875 22.0613C4.74461 24.1359 5.09288 26.2373 5.99325 28.1223C6.89363 30.0073 8.30932 31.5988 10.0765 32.7127C11.8437 33.8266 13.8902 34.4174 15.9792 34.4167C16.5274 34.4167 17.0535 34.3331 17.5771 34.2569C17.4075 34.8272 17.2329 35.4074 16.9527 35.9286C16.6724 36.6857 16.2348 37.3421 15.7997 38.0034C15.4359 38.7188 14.7942 39.2031 14.3222 39.8152C13.8281 40.4101 13.1545 40.8059 12.6211 41.3C12.0975 41.8163 11.4116 42.0744 10.8658 42.4382C10.2955 42.7652 9.79891 43.1266 9.26791 43.2986L7.94287 43.8444C7.20291 44.1468 6.78008 44.3238 6.78008 44.3238L7.96991 49.0905L9.43754 48.7365C9.90708 48.6185 10.4799 48.4808 11.1313 48.3161C11.7975 48.1932 12.508 47.8564 13.2996 47.5491C14.0789 47.1976 14.986 46.964 15.8267 46.4011C16.6724 45.8651 17.6484 45.4177 18.5088 44.6999C19.3422 43.9599 20.3476 43.3183 21.09 42.3792C21.9013 41.4991 22.7027 40.5748 23.3247 39.5226C24.045 38.5196 24.5342 37.4183 25.0504 36.3293C25.5175 35.2402 25.8936 34.1266 26.2009 33.0449C26.7835 30.8767 27.0441 28.8166 27.1449 27.054C27.2285 25.2889 27.1793 23.8213 27.0761 22.7593C27.0394 22.3175 26.9869 21.8772 26.9187 21.4391V21.4391Z" fill="black"/>
</svg>
