<svg width="92" height="102" viewBox="0 0 92 102" fill="none" xmlns="http://www.w3.org/2000/svg">
<path d="M56.5 2.66663H27.5C24.8306 2.66663 22.6666 4.83058 22.6666 7.49996V17.1666C22.6666 19.836 24.8306 22 27.5 22H56.5C59.1693 22 61.3333 19.836 61.3333 17.1666V7.49996C61.3333 4.83058 59.1693 2.66663 56.5 2.66663Z" stroke="white" stroke-width="5" stroke-linecap="round" stroke-linejoin="round"/>
<path d="M22.6666 12.3333H13C10.4362 12.3333 7.97747 13.3517 6.16461 15.1646C4.35176 16.9774 3.33331 19.4362 3.33331 21.9999V89.6666C3.33331 92.2303 4.35176 94.6891 6.16461 96.502C7.97747 98.3148 10.4362 99.3333 13 99.3333H71C73.5637 99.3333 76.0225 98.3148 77.8353 96.502C79.6482 94.6891 80.6666 92.2303 80.6666 89.6666V87.2499M61.3333 12.3333H71C72.6952 12.335 74.3601 12.7825 75.8277 13.6308C77.2953 14.4792 78.5141 15.6985 79.3616 17.1666" stroke="white" stroke-width="5" stroke-linecap="round" stroke-linejoin="round"/>
<path d="M22.6666 79.9999H27.5M73.03 39.4482C73.9725 38.5057 75.0915 37.758 76.323 37.2479C77.5545 36.7378 78.8745 36.4752 80.2075 36.4752C81.5404 36.4752 82.8604 36.7378 84.0919 37.2479C85.3234 37.758 86.4424 38.5057 87.385 39.4482C88.3275 40.3908 89.0752 41.5098 89.5853 42.7413C90.0954 43.9728 90.358 45.2928 90.358 46.6257C90.358 47.9587 90.0954 49.2787 89.5853 50.5102C89.0752 51.7417 88.3275 52.8607 87.385 53.8032L65.925 75.1666L46.8333 79.9999L51.6183 60.9082L73.03 39.4482Z" stroke="white" stroke-width="3" stroke-linecap="round" stroke-linejoin="round"/>
</svg>
