<svg width="125" height="87" viewBox="0 0 125 87" fill="none" xmlns="http://www.w3.org/2000/svg">
<path fill-rule="evenodd" clip-rule="evenodd" d="M80.8906 33.0156C81.2544 33.3785 81.543 33.8096 81.7399 34.2841C81.9369 34.7587 82.0382 35.2675 82.0382 35.7813C82.0382 36.2951 81.9369 36.8038 81.7399 37.2784C81.543 37.753 81.2544 38.184 80.8906 38.5469L57.4531 61.9844C57.0903 62.3482 56.6592 62.6368 56.1846 62.8337C55.7101 63.0306 55.2013 63.132 54.6875 63.132C54.1737 63.132 53.6649 63.0306 53.1904 62.8337C52.7158 62.6368 52.2847 62.3482 51.9219 61.9844L40.2031 50.2656C39.8399 49.9025 39.5518 49.4713 39.3553 48.9968C39.1587 48.5222 39.0576 48.0136 39.0576 47.5C39.0576 46.9864 39.1587 46.4778 39.3553 46.0033C39.5518 45.5288 39.8399 45.0976 40.2031 44.7344C40.5663 44.3712 40.9975 44.0831 41.472 43.8866C41.9465 43.69 42.4551 43.5888 42.9687 43.5888C43.4824 43.5888 43.991 43.69 44.4655 43.8866C44.94 44.0831 45.3712 44.3712 45.7344 44.7344L54.6875 53.6953L75.3594 33.0156C75.7222 32.6519 76.1533 32.3633 76.6279 32.1663C77.1024 31.9694 77.6112 31.868 78.125 31.868C78.6388 31.868 79.1476 31.9694 79.6221 32.1663C80.0967 32.3633 80.5278 32.6519 80.8906 33.0156Z" fill="#170038"/>
<path d="M34.4219 11.1094C42.2303 4.37606 52.1894 0.657332 62.5 0.625C83.5156 0.625 100.961 16.25 102.859 36.3984C115.297 38.1562 125 48.5703 125 61.3516C125 75.3828 113.297 86.5625 99.1172 86.5625H29.5391C13.3438 86.5625 0 73.7969 0 57.7969C0 44.0234 9.89062 32.6172 22.9844 29.7266C24.1016 22.9844 28.4375 16.2656 34.4219 11.1094ZM39.5234 17.0234C33.6094 22.125 30.5156 28.2734 30.5156 33.0859V36.5859L27.0391 36.9688C16.125 38.1641 7.8125 47.125 7.8125 57.7969C7.8125 69.2578 17.4219 78.75 29.5391 78.75H99.1172C109.219 78.75 117.188 70.8438 117.188 61.3516C117.188 51.8516 109.219 43.9453 99.1172 43.9453H95.2109V40.0391C95.2188 22.6953 80.6875 8.4375 62.5 8.4375C54.0615 8.47121 45.9128 11.519 39.5234 17.0312V17.0234Z" fill="#170038"/>
</svg>
