<svg width="92" height="92" viewBox="0 0 92 92" fill="none" xmlns="http://www.w3.org/2000/svg">
<path d="M46 0C70.5732 0 92 20.286 92 43.7C92 66.7184 71.0562 84.8332 46 84.8332C40.6409 84.836 35.3153 83.9883 30.222 82.3216C28.0876 84.3916 27.3562 85.0954 22.8252 89.4654C19.5592 91.931 16.4864 92.7682 13.7402 91.2134C10.971 89.6494 10.1384 86.6042 10.7042 82.593L12.5442 71.9256C4.554 64.4092 0 54.4732 0 43.7C0 20.286 21.4222 0 46 0ZM46 6.44C24.9044 6.44 6.44 23.92 6.44 43.7C6.44 53.107 10.6352 61.7688 18.032 68.218L18.124 68.2962L19.4902 69.483L19.182 71.277L18.5472 74.9754L18.377 75.9598L17.066 83.5866C16.9887 84.1001 16.9426 84.6177 16.928 85.1368V85.5738C16.928 85.5968 16.9234 85.606 16.9188 85.6106C16.951 85.5646 17.5766 85.3668 18.6484 84.5848L28.6304 74.8972L30.5348 75.6148C35.4817 77.4606 40.7199 78.4032 46 78.3978C67.6936 78.3978 85.56 62.9418 85.56 43.7C85.56 23.9246 67.0956 6.44 46 6.44ZM24.0442 35.9398C24.9709 35.9059 25.8949 36.0592 26.7611 36.3905C27.6272 36.7218 28.4177 37.2243 29.0853 37.8679C29.7528 38.5115 30.2838 39.2831 30.6465 40.1366C31.0092 40.9901 31.1961 41.9079 31.1961 42.8352C31.1961 43.7625 31.0092 44.6803 30.6465 45.5338C30.2838 46.3873 29.7528 47.1589 29.0853 47.8025C28.4177 48.4461 27.6272 48.9486 26.7611 49.2799C25.8949 49.6112 24.9709 49.7645 24.0442 49.7306C22.259 49.6654 20.5687 48.9104 19.3288 47.6243C18.0889 46.3383 17.3961 44.6216 17.3961 42.8352C17.3961 41.0488 18.0889 39.3321 19.3288 38.0461C20.5687 36.76 22.259 36.005 24.0442 35.9398ZM47.035 35.9398C47.9617 35.9059 48.8857 36.0592 49.7519 36.3905C50.618 36.7218 51.4085 37.2243 52.0761 37.8679C52.7436 38.5115 53.2746 39.2831 53.6373 40.1366C54 40.9901 54.1869 41.9079 54.1869 42.8352C54.1869 43.7625 54 44.6803 53.6373 45.5338C53.2746 46.3873 52.7436 47.1589 52.0761 47.8025C51.4085 48.4461 50.618 48.9486 49.7519 49.2799C48.8857 49.6112 47.9617 49.7645 47.035 49.7306C45.2498 49.6654 43.5595 48.9104 42.3196 47.6243C41.0797 46.3383 40.3869 44.6216 40.3869 42.8352C40.3869 41.0488 41.0797 39.3321 42.3196 38.0461C43.5595 36.76 45.2498 36.005 47.035 35.9398ZM70.0212 35.9398C70.9479 35.9059 71.8719 36.0592 72.7381 36.3905C73.6042 36.7218 74.3947 37.2243 75.0623 37.8679C75.7298 38.5115 76.2608 39.2831 76.6235 40.1366C76.9862 40.9901 77.1731 41.9079 77.1731 42.8352C77.1731 43.7625 76.9862 44.6803 76.6235 45.5338C76.2608 46.3873 75.7298 47.1589 75.0623 47.8025C74.3947 48.4461 73.6042 48.9486 72.7381 49.2799C71.8719 49.6112 70.9479 49.7645 70.0212 49.7306C68.236 49.6654 66.5457 48.9104 65.3058 47.6243C64.0659 46.3383 63.3731 44.6216 63.3731 42.8352C63.3731 41.0488 64.0659 39.3321 65.3058 38.0461C66.5457 36.76 68.236 36.005 70.0212 35.9398Z" fill="white"/>
</svg>
